<svg id="visual" viewBox="0 0 900 600" width="900" height="600" xmlns="http://www.w3.org/2000/svg" xmlns:xlink="http://www.w3.org/1999/xlink" version="1.1"><rect x="0" y="0" width="900" height="600" fill="#140021"></rect><path d="M0 344L129 344L129 287L257 287L257 325L386 325L386 353L514 353L514 342L643 342L643 340L771 340L771 330L900 330L900 262L900 601L900 601L771 601L771 601L643 601L643 601L514 601L514 601L386 601L386 601L257 601L257 601L129 601L129 601L0 601Z" fill="#9900ff"></path><path d="M0 382L129 382L129 422L257 422L257 419L386 419L386 366L514 366L514 408L643 408L643 420L771 420L771 361L900 361L900 348L900 601L900 601L771 601L771 601L643 601L643 601L514 601L514 601L386 601L386 601L257 601L257 601L129 601L129 601L0 601Z" fill="#7700c6"></path><path d="M0 475L129 475L129 503L257 503L257 477L386 477L386 474L514 474L514 456L643 456L643 487L771 487L771 528L900 528L900 530L900 601L900 601L771 601L771 601L643 601L643 601L514 601L514 601L386 601L386 601L257 601L257 601L129 601L129 601L0 601Z" fill="#560090"></path></svg>